<svg width="60" height="60" viewBox="0 0 60 60" fill="none" xmlns="http://www.w3.org/2000/svg">
<path fill-rule="evenodd" clip-rule="evenodd" d="M2 14.75L9.25 2H23.75L31 14.75L23.75 27.25H9.25L2 14.75Z" fill="#85A4E6"/>
<path fill-rule="evenodd" clip-rule="evenodd" d="M28.5 19.25L21.25 6.5L23.75 1.75L31 14.75L28.5 19.25Z" fill="#5C85DE"/>
<path fill-rule="evenodd" clip-rule="evenodd" d="M6.75 23.25H21.25L26.25 14.75L28.5 19.25L23.75 27.25L9.25 27.5L6.75 23.25Z" fill="#3367D6"/>
<path fill-rule="evenodd" clip-rule="evenodd" d="M28 29.75L35.5 17H50L57.25 29.75L50 42.25H35.5L28 29.75Z" fill="#85A4E6"/>
<path fill-rule="evenodd" clip-rule="evenodd" d="M54.75 34.25L47.5 21.5L50 16.75L57.25 29.75L54.75 34.25Z" fill="#5C85DE"/>
<path fill-rule="evenodd" clip-rule="evenodd" d="M33 38.25H47.5L52.5 29.75L54.75 34.25L50 42.25L35.5 42.5L33 38.25Z" fill="#3367D6"/>
<path fill-rule="evenodd" clip-rule="evenodd" d="M2 44.75L9.25 32H23.75L31 44.75L23.75 57.25H9.25L2 44.75Z" fill="#85A4E6"/>
<path fill-rule="evenodd" clip-rule="evenodd" d="M28.5 49.25L21.25 36.5L23.75 31.75L31 44.75L28.5 49.25Z" fill="#5C85DE"/>
<path fill-rule="evenodd" clip-rule="evenodd" d="M6.75 53.25H21.25L26.25 44.75L28.5 49.25L23.75 57.25L9.25 57.5L6.75 53.25Z" fill="#3367D6"/>
</svg>
