<svg width="363" height="73" viewBox="0 0 363 73" fill="none" xmlns="http://www.w3.org/2000/svg">
<g clip-path="url(#clip0_12_24)" filter="url(#filter0_i_12_24)">
<path fill-rule="evenodd" clip-rule="evenodd" d="M14 21.75L21.25 9H35.75L43 21.75L35.75 34.25H21.25L14 21.75Z" fill="#85A4E6"/>
<path fill-rule="evenodd" clip-rule="evenodd" d="M40.5 26.25L33.25 13.5L35.75 8.75L43 21.75L40.5 26.25Z" fill="#5C85DE"/>
<path fill-rule="evenodd" clip-rule="evenodd" d="M18.75 30.25H33.25L38.25 21.75L40.5 26.25L35.75 34.25L21.25 34.5L18.75 30.25Z" fill="#3367D6"/>
<path fill-rule="evenodd" clip-rule="evenodd" d="M40 36.75L47.5 24H62L69.25 36.75L62 49.25H47.5L40 36.75Z" fill="#85A4E6"/>
<path fill-rule="evenodd" clip-rule="evenodd" d="M66.75 41.25L59.5 28.5L62 23.75L69.25 36.75L66.75 41.25Z" fill="#5C85DE"/>
<path fill-rule="evenodd" clip-rule="evenodd" d="M45 45.25H59.5L64.5 36.75L66.75 41.25L62 49.25L47.5 49.5L45 45.25Z" fill="#3367D6"/>
<path fill-rule="evenodd" clip-rule="evenodd" d="M14 51.75L21.25 39H35.75L43 51.75L35.75 64.25H21.25L14 51.75Z" fill="#85A4E6"/>
<path fill-rule="evenodd" clip-rule="evenodd" d="M40.5 56.25L33.25 43.5L35.75 38.75L43 51.75L40.5 56.25Z" fill="#5C85DE"/>
<path fill-rule="evenodd" clip-rule="evenodd" d="M18.75 60.25H33.25L38.25 51.75L40.5 56.25L35.75 64.25L21.25 64.5L18.75 60.25Z" fill="#3367D6"/>
</g>
<path d="M89.296 55C88.048 55 87.088 54.664 86.416 53.992C85.744 53.32 85.408 52.36 85.408 51.112V25.048C85.408 23.8 85.744 22.84 86.416 22.168C87.088 21.496 88.048 21.16 89.296 21.16H98.656C104.448 21.16 108.912 22.632 112.048 25.576C115.216 28.488 116.8 32.648 116.8 38.056C116.8 40.776 116.384 43.192 115.552 45.304C114.752 47.384 113.584 49.144 112.048 50.584C110.512 52.024 108.624 53.128 106.384 53.896C104.144 54.632 101.568 55 98.656 55H89.296ZM92.848 48.904H98.224C100.048 48.904 101.632 48.68 102.976 48.232C104.32 47.784 105.44 47.112 106.336 46.216C107.232 45.32 107.904 44.2 108.352 42.856C108.8 41.48 109.024 39.88 109.024 38.056C109.024 34.408 108.112 31.704 106.288 29.944C104.496 28.152 101.808 27.256 98.224 27.256H92.848V48.904ZM129.924 55.528C128.196 55.528 126.644 55.192 125.268 54.52C123.892 53.848 122.82 52.936 122.052 51.784C121.284 50.632 120.9 49.336 120.9 47.896C120.9 46.168 121.348 44.808 122.244 43.816C123.14 42.792 124.596 42.072 126.612 41.656C128.628 41.208 131.3 40.984 134.628 40.984H137.172V44.728H134.676C133.044 44.728 131.716 44.824 130.692 45.016C129.7 45.176 128.98 45.464 128.532 45.88C128.116 46.296 127.908 46.872 127.908 47.608C127.908 48.504 128.212 49.24 128.82 49.816C129.46 50.392 130.372 50.68 131.556 50.68C132.484 50.68 133.3 50.472 134.004 50.056C134.74 49.608 135.316 49.016 135.732 48.28C136.148 47.512 136.356 46.648 136.356 45.688V40.168C136.356 38.76 136.036 37.768 135.396 37.192C134.756 36.584 133.668 36.28 132.132 36.28C131.268 36.28 130.324 36.392 129.3 36.616C128.308 36.808 127.204 37.144 125.988 37.624C125.284 37.944 124.66 38.024 124.116 37.864C123.572 37.672 123.156 37.352 122.868 36.904C122.58 36.424 122.436 35.912 122.436 35.368C122.436 34.792 122.596 34.248 122.916 33.736C123.236 33.192 123.764 32.792 124.5 32.536C126.004 31.928 127.412 31.512 128.724 31.288C130.068 31.064 131.3 30.952 132.42 30.952C134.884 30.952 136.9 31.32 138.468 32.056C140.068 32.76 141.268 33.864 142.068 35.368C142.868 36.84 143.268 38.744 143.268 41.08V51.736C143.268 52.92 142.98 53.832 142.404 54.472C141.828 55.112 140.996 55.432 139.908 55.432C138.82 55.432 137.972 55.112 137.364 54.472C136.788 53.832 136.5 52.92 136.5 51.736V49.96L136.836 50.248C136.644 51.336 136.228 52.28 135.588 53.08C134.98 53.848 134.196 54.456 133.236 54.904C132.276 55.32 131.172 55.528 129.924 55.528ZM157.699 55.528C156.291 55.528 154.835 55.4 153.331 55.144C151.859 54.888 150.515 54.456 149.299 53.848C148.659 53.528 148.195 53.128 147.907 52.648C147.651 52.136 147.539 51.624 147.571 51.112C147.603 50.6 147.763 50.136 148.051 49.72C148.371 49.304 148.771 49.032 149.251 48.904C149.763 48.744 150.323 48.792 150.931 49.048C152.243 49.592 153.443 49.976 154.531 50.2C155.619 50.424 156.691 50.536 157.747 50.536C159.123 50.536 160.115 50.328 160.723 49.912C161.363 49.464 161.683 48.888 161.683 48.184C161.683 47.544 161.475 47.064 161.059 46.744C160.643 46.424 160.035 46.2 159.235 46.072L154.195 45.16C152.211 44.808 150.675 44.088 149.587 43C148.531 41.88 148.003 40.456 148.003 38.728C148.003 37.128 148.451 35.752 149.347 34.6C150.243 33.416 151.475 32.52 153.043 31.912C154.643 31.272 156.451 30.952 158.467 30.952C159.907 30.952 161.235 31.08 162.451 31.336C163.667 31.592 164.835 32.008 165.955 32.584C166.531 32.872 166.931 33.256 167.155 33.736C167.411 34.216 167.491 34.712 167.395 35.224C167.331 35.736 167.139 36.2 166.819 36.616C166.499 37.032 166.083 37.304 165.571 37.432C165.091 37.56 164.531 37.496 163.891 37.24C162.867 36.76 161.923 36.424 161.059 36.232C160.195 36.008 159.363 35.896 158.563 35.896C157.123 35.896 156.083 36.136 155.443 36.616C154.803 37.064 154.483 37.64 154.483 38.344C154.483 38.888 154.659 39.352 155.011 39.736C155.395 40.088 155.971 40.328 156.739 40.456L161.779 41.368C163.859 41.72 165.443 42.424 166.531 43.48C167.619 44.504 168.163 45.912 168.163 47.704C168.163 50.136 167.203 52.056 165.283 53.464C163.395 54.84 160.867 55.528 157.699 55.528ZM175.948 55.432C174.764 55.432 173.852 55.112 173.212 54.472C172.604 53.832 172.3 52.92 172.3 51.736V24.424C172.3 23.208 172.604 22.296 173.212 21.688C173.852 21.048 174.764 20.728 175.948 20.728C177.1 20.728 177.98 21.048 178.588 21.688C179.228 22.296 179.548 23.208 179.548 24.424V35.848H178.876C179.612 34.28 180.7 33.08 182.14 32.248C183.612 31.384 185.276 30.952 187.132 30.952C189.02 30.952 190.572 31.32 191.788 32.056C193.004 32.76 193.916 33.848 194.524 35.32C195.132 36.76 195.436 38.6 195.436 40.84V51.736C195.436 52.92 195.116 53.832 194.476 54.472C193.868 55.112 192.972 55.432 191.788 55.432C190.636 55.432 189.74 55.112 189.1 54.472C188.492 53.832 188.188 52.92 188.188 51.736V41.176C188.188 39.544 187.884 38.376 187.276 37.672C186.7 36.936 185.804 36.568 184.588 36.568C183.052 36.568 181.82 37.048 180.892 38.008C179.996 38.968 179.548 40.248 179.548 41.848V51.736C179.548 54.2 178.348 55.432 175.948 55.432ZM210.308 55.432C209.348 55.432 208.532 55.208 207.86 54.76C207.188 54.28 206.644 53.528 206.228 52.504L199.46 35.752C199.108 34.856 198.996 34.072 199.124 33.4C199.252 32.696 199.588 32.136 200.132 31.72C200.708 31.272 201.492 31.048 202.484 31.048C203.316 31.048 204.004 31.256 204.548 31.672C205.092 32.056 205.556 32.808 205.94 33.928L211.22 47.992H210.116L215.588 33.304C215.844 32.536 216.212 31.976 216.692 31.624C217.204 31.24 217.86 31.048 218.66 31.048C219.46 31.048 220.1 31.24 220.58 31.624C221.092 32.008 221.492 32.568 221.78 33.304L227.156 47.992H226.244L231.476 33.736C231.86 32.712 232.356 32.008 232.964 31.624C233.572 31.24 234.228 31.048 234.932 31.048C235.828 31.048 236.516 31.272 236.996 31.72C237.508 32.168 237.796 32.744 237.86 33.448C237.956 34.152 237.828 34.92 237.476 35.752L230.756 52.504C230.372 53.496 229.828 54.232 229.124 54.712C228.452 55.192 227.636 55.432 226.676 55.432C225.748 55.432 224.932 55.192 224.228 54.712C223.556 54.232 223.012 53.496 222.596 52.504L216.836 37.528H219.956L214.34 52.456C213.956 53.448 213.428 54.2 212.756 54.712C212.084 55.192 211.268 55.432 210.308 55.432ZM245.604 55.384C244.42 55.384 243.508 55.048 242.868 54.376C242.26 53.672 241.956 52.696 241.956 51.448V35.032C241.956 33.752 242.26 32.776 242.868 32.104C243.508 31.4 244.42 31.048 245.604 31.048C246.756 31.048 247.636 31.4 248.244 32.104C248.884 32.776 249.204 33.752 249.204 35.032V51.448C249.204 52.696 248.9 53.672 248.292 54.376C247.684 55.048 246.788 55.384 245.604 55.384ZM245.604 27.112C244.26 27.112 243.22 26.808 242.484 26.2C241.78 25.56 241.428 24.664 241.428 23.512C241.428 22.328 241.78 21.432 242.484 20.824C243.22 20.184 244.26 19.864 245.604 19.864C246.948 19.864 247.972 20.184 248.676 20.824C249.38 21.432 249.732 22.328 249.732 23.512C249.732 24.664 249.38 25.56 248.676 26.2C247.972 26.808 246.948 27.112 245.604 27.112ZM263.824 55.528C262.416 55.528 260.96 55.4 259.456 55.144C257.984 54.888 256.64 54.456 255.424 53.848C254.784 53.528 254.32 53.128 254.032 52.648C253.776 52.136 253.664 51.624 253.696 51.112C253.728 50.6 253.888 50.136 254.176 49.72C254.496 49.304 254.896 49.032 255.376 48.904C255.888 48.744 256.448 48.792 257.056 49.048C258.368 49.592 259.568 49.976 260.656 50.2C261.744 50.424 262.816 50.536 263.872 50.536C265.248 50.536 266.24 50.328 266.848 49.912C267.488 49.464 267.808 48.888 267.808 48.184C267.808 47.544 267.6 47.064 267.184 46.744C266.768 46.424 266.16 46.2 265.36 46.072L260.32 45.16C258.336 44.808 256.8 44.088 255.712 43C254.656 41.88 254.128 40.456 254.128 38.728C254.128 37.128 254.576 35.752 255.472 34.6C256.368 33.416 257.6 32.52 259.168 31.912C260.768 31.272 262.576 30.952 264.592 30.952C266.032 30.952 267.36 31.08 268.576 31.336C269.792 31.592 270.96 32.008 272.08 32.584C272.656 32.872 273.056 33.256 273.28 33.736C273.536 34.216 273.616 34.712 273.52 35.224C273.456 35.736 273.264 36.2 272.944 36.616C272.624 37.032 272.208 37.304 271.696 37.432C271.216 37.56 270.656 37.496 270.016 37.24C268.992 36.76 268.048 36.424 267.184 36.232C266.32 36.008 265.488 35.896 264.688 35.896C263.248 35.896 262.208 36.136 261.568 36.616C260.928 37.064 260.608 37.64 260.608 38.344C260.608 38.888 260.784 39.352 261.136 39.736C261.52 40.088 262.096 40.328 262.864 40.456L267.904 41.368C269.984 41.72 271.568 42.424 272.656 43.48C273.744 44.504 274.288 45.912 274.288 47.704C274.288 50.136 273.328 52.056 271.408 53.464C269.52 54.84 266.992 55.528 263.824 55.528ZM290.665 55.528C287.881 55.528 285.481 55.032 283.465 54.04C281.481 53.016 279.945 51.592 278.857 49.768C277.801 47.912 277.273 45.736 277.273 43.24C277.273 40.808 277.785 38.68 278.809 36.856C279.833 35 281.257 33.56 283.081 32.536C284.937 31.48 287.033 30.952 289.369 30.952C291.065 30.952 292.601 31.24 293.977 31.816C295.353 32.36 296.537 33.16 297.529 34.216C298.521 35.24 299.273 36.504 299.785 38.008C300.297 39.48 300.553 41.128 300.553 42.952C300.553 43.56 300.361 44.024 299.977 44.344C299.593 44.632 299.033 44.776 298.297 44.776H283.225V41.032H295.321L294.553 41.704C294.553 40.392 294.361 39.304 293.977 38.44C293.593 37.544 293.033 36.872 292.297 36.424C291.593 35.976 290.713 35.752 289.657 35.752C288.473 35.752 287.465 36.024 286.633 36.568C285.801 37.112 285.161 37.896 284.713 38.92C284.265 39.944 284.041 41.176 284.041 42.616V43C284.041 45.432 284.601 47.224 285.721 48.376C286.873 49.528 288.569 50.104 290.809 50.104C291.577 50.104 292.457 50.008 293.449 49.816C294.441 49.624 295.369 49.32 296.233 48.904C296.969 48.552 297.625 48.44 298.201 48.568C298.777 48.664 299.225 48.92 299.545 49.336C299.865 49.752 300.041 50.232 300.073 50.776C300.137 51.32 300.025 51.864 299.737 52.408C299.449 52.92 298.969 53.352 298.297 53.704C297.209 54.312 295.977 54.76 294.601 55.048C293.257 55.368 291.945 55.528 290.665 55.528Z" fill="white"/>
<defs>
<filter id="filter0_i_12_24" x="12" y="7" width="72" height="72" filterUnits="userSpaceOnUse" color-interpolation-filters="sRGB">
<feFlood flood-opacity="0" result="BackgroundImageFix"/>
<feBlend mode="normal" in="SourceGraphic" in2="BackgroundImageFix" result="shape"/>
<feColorMatrix in="SourceAlpha" type="matrix" values="0 0 0 0 0 0 0 0 0 0 0 0 0 0 0 0 0 0 127 0" result="hardAlpha"/>
<feOffset dx="12" dy="12"/>
<feGaussianBlur stdDeviation="6"/>
<feComposite in2="hardAlpha" operator="arithmetic" k2="-1" k3="1"/>
<feColorMatrix type="matrix" values="0 0 0 0 0 0 0 0 0 0 0 0 0 0 0 0 0 0 0.15 0"/>
<feBlend mode="normal" in2="shape" result="effect1_innerShadow_12_24"/>
</filter>
<clipPath id="clip0_12_24">
<rect width="60" height="60" fill="white" transform="translate(12 7)"/>
</clipPath>
</defs>
</svg>
